<svg id="logo-nituno" xmlns="http://www.w3.org/2000/svg" xmlns:xlink="http://www.w3.org/1999/xlink" width="220" height="46.779" viewBox="0 0 220 46.779">
  <defs>
    <linearGradient id="linear-gradient" y1="0.5" x2="1" y2="0.5" gradientUnits="objectBoundingBox">
      <stop offset="0.568" stop-color="#1d9dff"/>
      <stop offset="1" stop-color="#1b6ae3"/>
    </linearGradient>
  </defs>
  <path id="Tracé_21" data-name="Tracé 21" d="M812.831,477.442l-15.964-9.009v18.333l15.964,9.009V477.442Z" transform="translate(-796.867 -452.822)" fill="#002b56" fill-rule="evenodd"/>
  <path id="Tracé_22" data-name="Tracé 22" d="M823.022,445.125l-20.256,11.694,20.256,11.695V491.9l20.255-11.694v-23.39l-20.255-11.694Zm0,6.852-8.387,4.842,14.322,8.269v16.537l8.387-4.842V460.245l-14.321-8.268Z" transform="translate(-798.816 -445.125)" fill-rule="evenodd" fill="url(#linear-gradient)"/>
  <g id="Groupe_16" data-name="Groupe 16" transform="translate(60.945 10.178)">
    <path id="Tracé_23" data-name="Tracé 23" d="M887.863,461.105h5.327l13.491,17.661V461.105h5.361v26.282h-5.414l-13.509-17.7v17.7h-5.256Z" transform="translate(-887.863 -460.58)" fill="#002b56"/>
    <path id="Tracé_24" data-name="Tracé 24" d="M941.484,461.105v26.282h-5.361V461.105Z" transform="translate(-903.801 -460.58)" fill="#002b56"/>
    <path id="Tracé_25" data-name="Tracé 25" d="M953.149,465.836v-4.731h20.394v4.731h-7.517v21.551h-5.361V465.836Z" transform="translate(-909.423 -460.58)" fill="#002b56"/>
    <path id="Tracé_26" data-name="Tracé 26" d="M997.981,461.105v14.718a8.3,8.3,0,0,0,1.611,5.344,5.543,5.543,0,0,0,8.55,0,8.306,8.306,0,0,0,1.612-5.344V461.105h5.362v14.718a13.693,13.693,0,0,1-1.4,6.36,10.315,10.315,0,0,1-3.925,4.223,12.378,12.378,0,0,1-11.836,0,10.3,10.3,0,0,1-3.934-4.223,13.7,13.7,0,0,1-1.4-6.36V461.105Z" transform="translate(-922.458 -460.58)" fill="#002b56"/>
    <path id="Tracé_27" data-name="Tracé 27" d="M1038.368,461.105h5.327l13.491,17.661V461.105h5.362v26.282h-5.415l-13.509-17.7v17.7h-5.256Z" transform="translate(-937.567 -460.58)" fill="#002b56"/>
    <path id="Tracé_28" data-name="Tracé 28" d="M1084.535,473.987a14.354,14.354,0,0,1,1.016-5.458,12.882,12.882,0,0,1,7.193-7.193,15.166,15.166,0,0,1,10.915,0,12.882,12.882,0,0,1,7.193,7.193,15.171,15.171,0,0,1,0,10.915,12.881,12.881,0,0,1-7.193,7.192,15.163,15.163,0,0,1-10.915,0,12.881,12.881,0,0,1-7.193-7.192A14.355,14.355,0,0,1,1084.535,473.987Zm5.432,0a9.638,9.638,0,0,0,1.069,4.591,8.221,8.221,0,0,0,2.925,3.18,8.3,8.3,0,0,0,8.48,0,8.233,8.233,0,0,0,2.926-3.18,10.412,10.412,0,0,0,0-9.19,8.152,8.152,0,0,0-2.926-3.18,8.355,8.355,0,0,0-8.48,0,8.14,8.14,0,0,0-2.925,3.18A9.69,9.69,0,0,0,1089.967,473.987Z" transform="translate(-952.813 -460.321)" fill="#002b56"/>
  </g>
</svg>
